<svg width="99" height="83" viewBox="0 0 99 83" fill="none" xmlns="http://www.w3.org/2000/svg">
<path d="M2.83386 41.4643L29.6999 36.306L15.5801 47.4413C14.0208 49.0754 15.1253 51.8685 17.3296 51.8685H51.7783C50.3181 47.5888 49.4998 43.0384 49.4998 38.3518V31.4995L30.9791 17.2987C27.2945 14.7244 22.4265 15.0275 19.059 18.0428L0.898731 36.9026C-1.01629 38.5772 0.365061 41.8339 2.83386 41.4643ZM88.9743 46.9923L73.4036 38.8365C72.1705 38.1905 71.1335 37.1974 70.4087 35.9685C69.6839 34.7396 69.2999 33.3235 69.2997 31.8788V25.931H79.1997L83.5448 29.5996C84.473 30.5722 85.7321 31.1185 87.0454 31.1185H91.8361C92.7553 31.1185 93.6564 30.8501 94.4383 30.3436C95.2202 29.8371 95.8521 29.1125 96.2632 28.2508L98.4768 23.6112C98.8878 22.7496 99.0618 21.785 98.9793 20.8256C98.8968 19.8661 98.561 18.9497 98.0096 18.1789L86.4808 2.06852C85.5449 0.761914 84.0785 0 82.5208 0H45.7904C44.6875 0 44.1353 1.38928 44.9149 2.20631L54.4498 10.3685L45.2335 14.3953C44.3209 14.8735 44.3209 16.2369 45.2335 16.7151L54.4498 20.7435V38.3518C54.4498 50.0367 60.0232 60.9483 69.2997 67.431C39.0445 68.535 16.0008 74.0791 2.15015 77.3051C0.89409 77.5969 0 78.7657 0 80.1145C0 81.7031 1.22976 83 2.74724 83H79.9484C89.7385 83.0016 98.4505 75.2901 98.9733 65.0448C99.3631 57.3802 95.4573 50.3901 88.9743 46.9923ZM75.6697 10.7397L82.7312 12.5894C82.3058 14.358 80.8022 15.6517 78.9986 15.5495C76.9939 15.4344 74.9999 13.5183 75.6697 10.7397Z" fill="black"/>
</svg>
