<svg width="107" height="53" viewBox="0 0 107 53" fill="none" xmlns="http://www.w3.org/2000/svg">
<path d="M78.762 0C67.7109 0 59.0673 6.84031 53.5 13.0181C47.9327 6.84031 39.2891 0 28.238 0C12.6728 0 0 11.8919 0 26.5C0 41.1081 12.6728 53 28.238 53C39.2891 53 47.9327 46.1597 53.5 39.9819C59.0673 46.1597 67.7109 53 78.762 53C94.3272 53 107 41.1081 107 26.5C107 11.8919 94.3272 0 78.762 0ZM28.238 37.1C21.517 37.1 16.05 32.3466 16.05 26.5C16.05 20.6534 21.517 15.9 28.238 15.9C34.6245 15.9 40.5095 21.8791 43.9536 26.5C40.543 31.0713 34.6078 37.1 28.238 37.1ZM78.762 37.1C72.3755 37.1 66.4905 31.1209 63.0464 26.5C66.457 21.9288 72.3922 15.9 78.762 15.9C85.483 15.9 90.95 20.6534 90.95 26.5C90.95 32.3466 85.483 37.1 78.762 37.1Z" fill="#FE9800"/>
</svg>
