<svg width="163" height="41" viewBox="0 0 163 41" fill="none" xmlns="http://www.w3.org/2000/svg">
<g clip-path="url(#clip0)">
<path d="M23.7667 27.064C23.1725 31.5074 21.7861 34.9409 20.0036 37.3645C18.2211 39.7882 15.6464 41 12.4775 41C11.0911 41 10.1009 40.5961 9.11057 39.9902C8.31835 39.3842 7.52612 38.3744 6.93196 37.1626L6.13973 40.3941H0L5.94168 0H13.0717L10.8931 14.9458C11.6853 13.936 12.6756 13.3301 13.4678 12.7241C14.4581 12.1182 15.4484 11.9163 16.6367 11.9163C19.6075 11.9163 21.5881 13.3301 22.7764 15.9557C23.9648 18.5813 24.3609 22.2167 23.5686 26.6601L23.7667 27.064ZM16.6367 26.6601C17.0328 23.8325 17.0328 21.6108 16.8348 19.9951C16.4386 18.3793 15.6464 17.5714 14.062 17.5714C13.2697 17.5714 12.4775 17.9754 11.8834 18.3793C11.2892 18.7833 10.695 19.3892 10.1009 20.197L8.12029 33.1232C8.31835 33.931 8.71446 34.335 9.30863 34.7389C9.90279 35.1429 10.497 35.3448 11.4872 35.3448C12.8736 35.3448 14.062 34.7389 14.8542 33.3251C15.6464 31.9113 16.2406 29.8916 16.6367 27.266V26.6601Z" fill="#2B2A29"/>
<path d="M40.6015 36.5566C39.6112 37.9704 38.6209 39.1822 37.4326 39.7882C36.2442 40.596 34.8578 41 33.4714 41C31.0948 41 29.3123 39.9901 28.1239 37.9704C26.9356 35.9507 26.7375 32.7192 27.3317 28.6798L29.7084 12.5222H36.8384L34.4617 28.6798C34.0656 31.3054 34.0656 33.1231 34.4617 33.931C34.8578 34.9409 35.452 35.3448 36.6403 35.3448C37.4326 35.3448 38.2248 35.1428 38.8189 34.7389C39.4131 34.335 40.2053 33.931 40.6015 33.3251L43.5723 12.3202H50.7023L46.7412 40.3941H40.7995L40.6015 36.5566Z" fill="#2B2A29"/>
<path d="M64.7643 33.1232C64.9624 32.3153 64.7643 31.5074 64.1701 30.9015C63.576 30.2956 62.5857 29.6897 60.8032 28.6798C58.2285 27.67 56.2479 26.4581 55.0596 25.0443C53.6732 24.0345 53.2771 22.2168 53.4751 20.197C53.8712 17.7734 54.8615 15.9557 56.8421 14.3399C58.8226 12.7241 61.3973 11.9163 64.3682 11.9163C67.339 11.9163 69.7157 12.7241 71.3001 14.5419C73.0826 16.1576 73.6768 18.1773 73.2807 20.803V21.0049H66.3487C66.5468 19.7931 66.3487 18.7833 65.9526 18.1773C65.5565 17.5714 64.7643 17.1675 63.774 17.1675C62.9818 17.1675 62.1896 17.3695 61.5954 17.9754C61.0012 18.5813 60.6051 19.1872 60.4071 19.9951C60.209 20.803 60.4071 21.6108 61.0012 22.0148C61.5954 22.4187 62.5857 23.2266 64.3682 24.0345C67.141 25.0443 69.1215 26.2562 70.3099 27.67C71.4982 29.0837 71.8943 30.9015 71.6962 33.1232C71.3001 35.5468 70.1118 37.5665 68.1312 38.9803C66.1507 40.3941 63.576 41.202 60.4071 41.202C57.2382 41.202 54.8615 40.1921 53.2771 38.3744C51.6926 36.5567 50.9004 34.335 51.2965 32.1133V31.9113H57.8323C57.6343 33.5271 57.8323 34.537 58.4265 35.1429C59.0207 35.7488 59.8129 36.1527 61.0012 36.1527C61.9915 36.1527 62.7837 35.9507 63.3779 35.3448C64.1701 34.7389 64.5662 33.931 64.7643 33.1232Z" fill="#2B2A29"/>
<path d="M84.7679 15.5517C85.7582 14.3399 86.7485 13.3301 87.7387 12.7241C88.9271 12.1182 90.1154 11.7143 91.3037 11.7143C93.6804 11.7143 95.4629 12.7241 96.6512 14.7438C97.8396 16.7635 98.0376 19.7931 97.4435 23.8325L95.2649 40.3941H88.1348L90.5115 23.8325C90.9076 21.4089 90.9076 19.7931 90.5115 18.9852C90.1154 18.1773 89.5212 17.5714 88.3329 17.5714C87.5407 17.5714 86.7485 17.7734 86.1543 18.1773C85.5601 18.5813 84.9659 18.9852 84.3718 19.5911L81.2029 40.3941H74.0729L80.0146 0H87.1446L84.7679 15.5517Z" fill="#2B2A29"/>
<path d="M107.346 40.3941H100.216L104.375 12.3202H111.505L107.346 40.3941ZM112.496 5.65517H105.366L106.158 0H113.288L112.496 5.65517Z" fill="#2B2A29"/>
<path d="M88.9271 31.3053C88.9271 31.3053 65.9526 31.7093 65.9526 35.1428C65.9526 35.1428 64.1701 36.9605 76.4496 34.9408C76.4496 34.9408 106.356 29.0837 125.765 30.6994C125.765 30.6994 152.305 30.2955 162.802 33.729C162.802 33.729 132.697 25.2462 90.3135 31.1034L88.9271 31.3053Z" fill="#2B2A29"/>
<path d="M17.8251 7.27102V9.69466C18.6173 9.49269 19.2115 9.49269 20.0037 9.29072V9.89663C18.0231 10.3006 16.0426 10.7045 14.6562 10.9065C14.6562 10.9065 14.6562 11.1085 14.4581 11.1085L14.2601 10.0986H15.2504V5.85722H16.0426C16.0426 6.05919 16.0426 6.05919 15.8445 6.05919V9.89663L17.2309 9.69466V4.84737H18.0231C18.0231 4.84737 18.0231 5.04934 17.8251 5.04934V6.66511H19.6076V7.27102H17.8251ZM23.5687 4.6454H20.7959C20.994 7.87693 21.5881 10.3006 22.5784 10.3006C22.7765 10.3006 22.9745 9.69466 22.9745 8.28087C23.1726 8.48284 23.3706 8.68481 23.5687 8.68481C23.3706 10.5025 23.1726 10.9065 22.3804 11.1085C20.7959 11.1085 20.2017 8.28087 19.8056 4.6454H14.4581V4.03949H20.2017C20.2017 3.23161 20.2017 2.42373 20.2017 1.61584H21.192C21.192 1.61584 21.192 1.81782 20.994 1.81782C20.994 2.6257 20.994 3.43358 20.994 4.03949H23.7668V4.6454H23.5687ZM19.2115 2.01979V2.6257H15.2504V2.01979H19.2115ZM21.5881 1.61584C22.1823 2.01979 22.9745 2.82767 23.1726 3.23161L22.5784 3.63555C22.3804 3.23161 21.7862 2.42373 21.192 2.01979L21.5881 1.61584Z" fill="#2B2A29"/>
<path d="M33.6696 5.45323H29.5104V9.69461H33.2735V10.3005H25.1532V9.89658H28.7182V5.45323H24.559V4.84732H28.7182V1.41382H29.7085C29.7085 1.41382 29.7085 1.61579 29.5104 1.61579V4.64535H33.6696V5.45323Z" fill="#2B2A29"/>
<path d="M37.2345 5.65507L36.0462 5.25113L36.2443 4.44325L37.6307 5.04916V4.03931H38.6209V5.25113L39.6112 4.64522L39.8093 5.4531L38.4229 5.85704L39.2151 6.66492L38.4229 7.06886L37.6307 6.05901L36.8384 6.86689L36.0462 6.46295L37.2345 5.65507Z" fill="#C64750"/>
<path d="M42.384 8.68462H40.9976V1.81763H42.384V8.68462Z" fill="#C64750"/>
<path d="M46.5432 8.68463C45.7509 8.68463 44.9587 8.48266 44.5626 8.07872C44.1665 7.67477 43.7704 7.06886 43.7704 6.46295V6.26098C43.7704 5.65507 43.9684 5.04916 44.5626 4.64522C45.1568 4.24128 45.7509 4.03931 46.5432 4.03931C47.3354 4.03931 47.9296 4.24128 48.3257 4.64522C48.7218 5.04916 48.9198 5.65507 48.9198 6.26098V6.86689H45.3548C45.3548 7.27083 45.5529 7.4728 45.7509 7.87675C45.949 8.07872 46.3451 8.28069 46.9393 8.28069C47.3354 8.28069 47.5334 8.28069 47.9296 8.07872C48.3257 7.87675 48.5237 7.87675 48.7218 7.87675L49.1179 8.48266C48.9198 8.68463 48.5237 8.68463 48.1276 8.8866C47.3354 8.68463 46.9393 8.68463 46.5432 8.68463ZM46.3451 4.64522C45.949 4.64522 45.7509 4.64522 45.5529 4.84719C45.3548 5.04916 45.1568 5.25113 45.1568 5.65507H47.5334C47.5334 5.4531 47.5334 5.04916 47.3354 4.84719C46.9393 4.84719 46.7412 4.64522 46.3451 4.64522Z" fill="#C64750"/>
<path d="M49.712 6.46295C49.712 5.65507 49.9101 5.04916 50.3062 4.64522C50.7023 4.24128 51.2965 4.03931 52.0887 4.03931C52.4848 4.03931 52.6829 4.03931 53.079 4.24128C53.4751 4.44325 53.6732 4.44325 53.6732 4.84719V4.03931H54.8615V8.68463C54.8615 9.29054 54.6634 9.69448 54.0693 10.0984C53.6732 10.5024 52.8809 10.5024 52.0887 10.5024C51.8906 10.5024 51.4945 10.5024 51.0984 10.5024C50.7023 10.5024 50.5043 10.3004 50.1081 10.3004L50.3062 9.49251C50.5043 9.49251 50.7023 9.69448 51.0984 9.69448C51.2965 9.69448 51.6926 9.69448 51.8907 9.69448C52.2868 9.69448 52.6829 9.69448 52.8809 9.49251C53.277 9.29054 53.4751 9.08857 53.4751 8.68463V8.28069C53.277 8.48266 53.079 8.68463 52.8809 8.68463C52.6829 8.68463 52.2868 8.8866 52.0887 8.8866C51.2965 8.8866 50.7023 8.68463 50.3062 8.28069C49.9101 7.67477 49.712 7.27083 49.712 6.46295ZM50.9004 6.46295C50.9004 6.86689 51.0984 7.27083 51.2965 7.4728C51.4945 7.67477 51.8907 7.87674 52.2868 7.87674C52.4848 7.87674 52.8809 7.87674 53.079 7.67477C53.277 7.4728 53.4751 7.4728 53.4751 7.27083V5.25113C53.277 5.04916 53.277 4.84719 53.079 4.84719C52.8809 4.84719 52.6829 4.64522 52.2868 4.64522C51.8907 4.64522 51.4945 4.84719 51.2965 5.04916C51.0984 5.25113 50.9004 5.85704 50.9004 6.46295Z" fill="#C64750"/>
<path d="M59.8129 8.68457C59.8129 8.4826 59.8129 8.4826 59.6149 8.28063C59.4168 8.07866 59.6149 8.07866 59.6149 7.87669C59.4168 8.07866 59.2187 8.28063 58.8226 8.4826C58.4265 8.68457 58.2285 8.68457 57.8324 8.68457C57.2382 8.68457 56.644 8.4826 56.446 8.28063C56.0499 8.07866 55.8518 7.67472 55.8518 7.27078C55.8518 6.86684 56.0499 6.4629 56.446 6.26093C56.8421 6.05895 57.6343 5.85698 58.4265 5.85698H59.4168V5.45304C59.4168 5.25107 59.4168 5.0491 59.2187 4.84713C59.0207 4.64516 58.8226 4.64516 58.4265 4.64516C58.0304 4.64516 57.8324 4.64516 57.6343 4.84713C57.4362 5.0491 57.4362 5.25107 57.4362 5.25107H56.2479C56.2479 4.84713 56.446 4.64516 56.8421 4.24122C57.2382 4.03925 57.8324 3.83728 58.6246 3.83728C59.2187 3.83728 59.8129 4.03925 60.209 4.24122C60.6051 4.44319 60.8032 4.84713 60.8032 5.45304V7.47275C60.8032 7.67472 60.8032 7.87669 60.8032 8.07866C60.8032 8.28063 60.8032 8.4826 61.0012 8.68457H59.8129ZM58.0304 7.87669C58.4265 7.87669 58.6246 7.87669 59.0207 7.67472C59.2187 7.47275 59.4168 7.47275 59.6149 7.27078V6.66487H58.6246C58.2285 6.66487 58.0304 6.66487 57.6343 6.86684C57.4362 7.06881 57.2382 7.27078 57.2382 7.47275C57.2382 7.67472 57.2382 7.87669 57.4362 7.87669C57.6343 7.87669 57.8324 7.87669 58.0304 7.87669Z" fill="#C64750"/>
<path d="M64.7643 7.87675C65.1604 7.87675 65.3585 7.87675 65.5565 7.67478C65.7546 7.47281 65.9526 7.27084 65.9526 7.06886H67.141C67.141 7.47281 66.9429 7.87675 66.5468 8.28069C66.1507 8.68463 65.5565 8.68463 64.9624 8.68463C64.1701 8.68463 63.3779 8.48266 62.9818 8.07872C62.5857 7.67478 62.1896 7.06886 62.1896 6.46295V6.26098C62.1896 5.65507 62.3876 5.04916 62.9818 4.64522C63.3779 4.24128 64.1701 4.03931 64.9624 4.03931C65.5565 4.03931 66.1507 4.24128 66.5468 4.44325C66.9429 4.84719 67.141 5.25113 67.141 5.65507H65.9526C65.9526 5.4531 65.7546 5.25113 65.5565 5.04916C65.3585 4.84719 65.1604 4.84719 64.7643 4.84719C64.3682 4.84719 63.9721 5.04916 63.774 5.25113C63.576 5.4531 63.3779 5.85704 63.3779 6.26098V6.46295C63.3779 6.86689 63.576 7.27084 63.774 7.47281C63.774 7.87675 64.1701 7.87675 64.7643 7.87675Z" fill="#C64750"/>
<path d="M70.1118 6.86689L70.3098 7.27083L71.4982 4.03931H72.8846L70.5079 9.49251C70.3098 9.89645 70.1118 10.0984 69.9137 10.3004C69.7157 10.5024 69.3196 10.7043 68.7254 10.7043C68.5273 10.7043 68.5273 10.7043 68.3293 10.7043C68.1312 10.7043 68.1312 10.7043 67.9332 10.7043L68.1312 9.89645H68.3293H68.5273C68.7254 9.89645 68.9234 9.89645 69.1215 9.69448C69.3196 9.49251 69.3196 9.49251 69.5176 9.29054L69.7157 8.8866L67.537 4.03931H68.9234L70.1118 6.86689Z" fill="#C64750"/>
<path d="M74.6671 5.65501L73.4788 5.25107L73.6768 4.44319L75.0632 4.84713V3.83728H76.0535V5.0491L77.2418 4.64516L77.4399 5.45304L76.0535 5.85699L76.8457 6.66487L76.0535 7.06881L75.2613 6.05896L74.469 6.86684L73.6768 6.4629L74.6671 5.65501Z" fill="#C64750"/>
</g>
<defs>
<clipPath id="clip0">
<rect width="163" height="41" fill="white"/>
</clipPath>
</defs>
</svg>
